<svg width="187" height="46" viewBox="0 0 187 46" fill="none" xmlns="http://www.w3.org/2000/svg">
<path fill-rule="evenodd" clip-rule="evenodd" d="M54.5038 34.9257C53.1341 37.7491 50.0788 39.9973 45.9172 39.9973C39.5431 39.9973 34.3279 35.4486 34.3279 25.9852V25.5669C34.3279 16.2603 39.4904 11.2934 46.0225 11.2934C50.3422 11.2934 52.9234 13.1233 54.5038 15.8943V0H63.9332V39.3699H54.4449L54.5038 34.9257ZM43.9154 25.8806C43.9154 30.4816 45.9699 32.8344 49.2359 32.8344C52.66 32.8344 54.7671 30.4816 54.7671 25.8283V25.41C54.7671 20.809 52.8181 18.3517 49.3413 18.3517C45.8118 18.3517 43.9154 20.7045 43.9154 25.4623V25.8806Z" fill="white"/>
<path d="M31.9615 39.3699H22.5321V12.0253H31.9615V39.3699Z" fill="white"/>
<path d="M0 39.3699H9.42944V19.9909H18.8438V12.0253H0V39.3699Z" fill="white"/>
<path fill-rule="evenodd" clip-rule="evenodd" d="M86.5077 34.9257C85.138 37.7491 82.0827 39.9973 77.9211 39.9973C71.547 39.9973 66.3318 35.4486 66.3318 25.9852V25.5669C66.3318 16.2603 71.4943 11.2934 78.0264 11.2934C82.3461 11.2934 84.9273 13.1233 86.5077 15.8943V10.8713H95.9371L95.9376 39.3533H86.5081L86.5077 34.9257ZM75.9193 25.8806C75.9193 30.4816 77.9738 32.8344 81.2398 32.8344C84.6639 32.8344 86.771 30.4816 86.771 25.8283V25.41C86.771 20.809 84.8219 18.3517 81.3452 18.3517C77.8157 18.3517 75.9193 20.7045 75.9193 25.4623V25.8806Z" fill="white"/>
<path d="M31.9666 0.0556986H22.5191V7.83892H31.9666V0.0556986Z" fill="white"/>
<g filter="url(#filter0_d_1698_40270)">
<rect x="99.0059" y="10.7148" width="82.8506" height="29.282" rx="14.641" fill="#FAFF00"/>
</g>
<path d="M113.508 32.7554H118.311C123.484 32.7554 126.061 29.8078 126.061 25.3967V25.2318C126.061 20.8207 123.505 18.0174 118.331 18.0174H113.508V32.7554ZM116.847 30.1582V20.6146H118.166C121.279 20.6146 122.577 22.2429 122.577 25.273V25.4379C122.577 28.4886 121.176 30.1582 118.207 30.1582H116.847Z" fill="black"/>
<path d="M135.476 32.7554H138.444V21.975H135.476V32.7554Z" fill="black"/>
<path d="M143.479 32.7554H146.839L150.755 21.975H147.869L145.313 29.6841L142.737 21.975H139.542L143.479 32.7554Z" fill="black"/>
<path d="M156.194 32.9821C159.142 32.9821 160.997 31.6835 161.347 29.3543H158.523C158.338 30.2612 157.658 30.859 156.277 30.859C154.648 30.859 153.679 29.8284 153.597 28.0351H161.368V27.2106C161.368 23.356 158.894 21.7276 156.112 21.7276C152.979 21.7276 150.567 23.9332 150.567 27.3343V27.4992C150.567 30.9415 152.937 32.9821 156.194 32.9821ZM153.638 26.2006C153.865 24.6752 154.772 23.7889 156.112 23.7889C157.534 23.7889 158.359 24.5722 158.462 26.2006H153.638Z" fill="black"/>
<path fill-rule="evenodd" clip-rule="evenodd" d="M130.098 21.9774H127.572V32.7466H130.565V24.7887H134.228V21.9774H130.565H130.098Z" fill="black"/>
<path fill-rule="evenodd" clip-rule="evenodd" d="M165.261 21.9774H162.735V32.7466H165.729V24.7887H169.392V21.9774H165.729H165.261Z" fill="black"/>
<path d="M135.462 17.7383H138.46V20.5495H135.462V17.7383Z" fill="black"/>
<defs>
<filter id="filter0_d_1698_40270" x="91.697" y="4.84695" width="94.5864" height="41.0178" filterUnits="userSpaceOnUse" color-interpolation-filters="sRGB">
<feFlood flood-opacity="0" result="BackgroundImageFix"/>
<feColorMatrix in="SourceAlpha" type="matrix" values="0 0 0 0 0 0 0 0 0 0 0 0 0 0 0 0 0 0 127 0" result="hardAlpha"/>
<feOffset dx="-1.44101"/>
<feGaussianBlur stdDeviation="2.93395"/>
<feComposite in2="hardAlpha" operator="out"/>
<feColorMatrix type="matrix" values="0 0 0 0 0 0 0 0 0 0 0 0 0 0 0 0 0 0 0.2 0"/>
<feBlend mode="normal" in2="BackgroundImageFix" result="effect1_dropShadow_1698_40270"/>
<feBlend mode="normal" in="SourceGraphic" in2="effect1_dropShadow_1698_40270" result="shape"/>
</filter>
</defs>
</svg>
