<svg width="94" height="40" viewBox="0 0 94 40" fill="none" xmlns="http://www.w3.org/2000/svg">
<path fill-rule="evenodd" clip-rule="evenodd" d="M53.0913 34.9281C51.7571 37.7516 48.781 40 44.7272 40C38.5183 40 33.4383 35.451 33.4383 25.9869V25.5686C33.4383 16.2614 38.467 11.2941 44.8299 11.2941C49.0376 11.2941 51.5519 13.1242 53.0913 15.8954V0H62.2764V39.3725H53.034L53.0913 34.9281ZM42.7773 25.8824C42.7773 30.4837 44.7785 32.8366 47.96 32.8366C51.2953 32.8366 53.3479 30.4837 53.3479 25.8301V25.4118C53.3479 20.8105 51.4493 18.3529 48.0626 18.3529C44.6246 18.3529 42.7773 20.7059 42.7773 25.4641V25.8824Z" fill="black"/>
<path d="M31.1333 39.3725H21.9482V12.0261H31.1333V39.3725Z" fill="black"/>
<path d="M0 39.3725H9.18507V19.9922H18.3554V12.0261H0V39.3725Z" fill="black"/>
<path fill-rule="evenodd" clip-rule="evenodd" d="M84.2658 34.9281C82.9316 37.7516 79.9555 40 75.9017 40C69.6928 40 64.6128 35.451 64.6128 25.9869V25.5686C64.6128 16.2614 69.6415 11.2941 76.0044 11.2941C80.2121 11.2941 82.7264 13.1242 84.2658 15.8954V10.872H93.4509L93.4513 39.356H84.2663L84.2658 34.9281ZM73.9518 25.8824C73.9518 30.4837 75.9531 32.8366 79.1345 32.8366C82.4698 32.8366 84.5224 30.4837 84.5224 25.8301V25.4118C84.5224 20.8105 82.6238 18.3529 79.2371 18.3529C75.7991 18.3529 73.9518 20.7059 73.9518 25.4641V25.8824Z" fill="black"/>
<path d="M31.1382 0.0557024H21.9355V7.83945H31.1382V0.0557024Z" fill="black"/>
</svg>
